# xmcd
#
# Track frame offsets:
# 150
# 12930
# 24972
# 42395
# 56845
# 73415
# 85973
# 99005
# 113858
# 128105
#
# Disc length: 1907 seconds
#
#
# Revision: 0
# Processed by: cddbd v1.5.2PL0 Copyright (c) Steve Scherf et al.
# Submitted via: FreeRIP 2.951 
#
DISCID=8007710a
DTITLE=Terry Barrett - Loosing A Good Thing
DYEAR=1994
DGENRE=Blues
TTITLE0=Loving a Good Thing
TTITLE1=No More
TTITLE2=What I'm Talking About
TTITLE3=Boogie Woogie
TTITLE4=Stay With Me
TTITLE5=Wishing For The Lotto
TTITLE6=Everytime
TTITLE7=I Don't Want To Be Alone
TTITLE8=So Wrong
TTITLE9=All Mine
EXTD=
EXTT0=
EXTT1=
EXTT2=
EXTT3=
EXTT4=
EXTT5=
EXTT6=
EXTT7=
EXTT8=
EXTT9=
PLAYORDER=
